<svg id="CUT" xmlns="http://www.w3.org/2000/svg" viewBox="0 0 131.68 48.02">
  <defs>
    <style>
      .cls-1 {
        fill: #00b8b0;
        stroke-width: 0px;
      }
    </style>
  </defs>
  <g id="Design">
    <g>
      <path class="cls-1" d="m102.6,7.28c-1.26-3.06,1.09-7,4.41-7.25,1.44-.18,2.91.38,3.89,1.43,1.8,1.87,2.31,4.87,1.19,7.22-1.05,2.3-2.54,4.42-4.46,6.07-.73.62-1.71,1.22-2.7.93-.54-.14-.78-.77-.6-1.27.43-1.36,1.89-1.97,2.49-3.23-1.64-.98-3.51-2.02-4.22-3.91Z"/>
      <path class="cls-1" d="m1.85,1.71c1.37-1.09,3.37-1.3,4.94-.54,1.61.75,2.71,2.45,2.7,4.23,0,6.11,0,12.23,0,18.34.09,5.7,3.82,11.12,9.08,13.29.65.16,1.28-.5,1.17-1.15,0-4.05,0-8.11,0-12.16.01-.98-.08-1.99.29-2.92.7-1.99,2.85-3.33,4.95-3.07,2.3.2,4.25,2.29,4.23,4.62.01,4.74,0,9.47,0,14.21-.08.64.69,1.21,1.28.92,4.91-1.82,8.76-6.21,9.94-11.31.33-1.32.42-2.69.43-4.05.09-2.17,1.9-4.09,4.05-4.36,2.11-.35,4.31.97,5.09,2.94.49,1.09.34,2.31.36,3.47,0,4.13,0,8.26,0,12.39-.09.62.57,1.21,1.17.96,5.82-2.2,10.09-8.01,10.32-14.25-.03-1.5.56-3.02,1.75-3.96,1.43-1.21,3.6-1.41,5.24-.51,1.46.77,2.45,2.36,2.48,4.02-.04,7.25-3.41,14.38-8.94,19.06-4.67,4.02-10.84,6.28-17.01,6.11-1.92-.03-3.7-1.4-4.29-3.21-.28-.79-.25-1.63-.25-2.45-5.21,4.24-12.16,6.33-18.84,5.53-7.82-1.16-15.2-5.85-19.08-12.81C.65,30.98.09,26.24.03,21.66-.03,16.32.02,10.98,0,5.63c-.04-1.5.64-3.01,1.85-3.92Z"/>
      <path class="cls-1" d="m92.2,18.4c2.73-.83,5.82,1.34,5.93,4.19.09,7.89-3.89,15.64-10.2,20.32-4.37,3.29-9.83,5.13-15.31,5.09-2.54.15-4.93-2.02-4.93-4.58-.1-1.92,1.13-3.83,2.93-4.52,1.14-.45,2.39-.35,3.59-.46,3.53-.32,6.93-1.88,9.5-4.33,2.85-2.69,4.66-6.46,4.95-10.37.06-.76.03-1.55.3-2.28.49-1.48,1.75-2.67,3.25-3.06Z"/>
      <path class="cls-1" d="m104.78,18.36c.85-.29,1.76-.22,2.65-.22,6.56,0,13.12,0,19.69,0,2.37,0,4.48,2.07,4.56,4.43.01,6.54-2.65,13.04-7.23,17.7-3.27,3.37-7.49,5.82-12.04,6.96-2.08.5-4.22.85-6.36.7-1.54-.13-3.22-.65-4.12-2-1.21-1.88-.89-4.6.77-6.12.95-.92,2.29-1.33,3.59-1.29,4.22-.03,8.41-1.78,11.34-4.82.95-1.06,1.82-2.2,2.58-3.4.33-.56.69-1.13.8-1.77.11-.56-.45-1.01-.98-.92-4.66-.02-9.33,0-13.99,0-2.32-.02-4.39-2.02-4.53-4.33-.23-2.14,1.22-4.29,3.27-4.92Z"/>
    </g>
  </g>
</svg>